<?xml version="1.0" encoding="utf-8"?>
<!-- Generator: Adobe Illustrator 17.0.0, SVG Export Plug-In . SVG Version: 6.00 Build 0)  -->
<!DOCTYPE svg PUBLIC "-//W3C//DTD SVG 1.1//EN" "http://www.w3.org/Graphics/SVG/1.1/DTD/svg11.dtd">
<svg version="1.1" id="Layer_1" xmlns="http://www.w3.org/2000/svg" xmlns:xlink="http://www.w3.org/1999/xlink" x="0px" y="0px"
	 width="22px" height="22px" viewBox="0 0 22 22" enable-background="new 0 0 22 22" xml:space="preserve">
<g>
	<path fill="#842F3C" d="M2.92,7.987c0.253,0.179,1.015,0.708,2.287,1.59c1.273,0.882,2.247,1.561,2.924,2.037
		c0.074,0.052,0.233,0.166,0.474,0.34c0.242,0.175,0.443,0.316,0.603,0.424c0.16,0.108,0.353,0.229,0.58,0.363
		c0.227,0.134,0.441,0.234,0.641,0.301c0.201,0.067,0.387,0.1,0.559,0.1h0.022c0.171,0,0.357-0.033,0.559-0.1
		c0.201-0.067,0.415-0.168,0.641-0.301c0.227-0.134,0.42-0.255,0.58-0.363c0.16-0.108,0.361-0.249,0.602-0.424
		c0.242-0.175,0.401-0.288,0.475-0.34c0.684-0.476,2.425-1.685,5.223-3.627c0.543-0.379,0.997-0.837,1.361-1.373
		C20.817,6.078,21,5.517,21,4.929c0-0.491-0.177-0.912-0.53-1.261c-0.353-0.35-0.772-0.524-1.255-0.524H2.786
		c-0.573,0-1.014,0.193-1.323,0.58C1.154,4.11,1,4.594,1,5.174c0,0.469,0.205,0.977,0.614,1.524C2.023,7.245,2.458,7.675,2.92,7.987
		L2.92,7.987z M2.92,7.987"/>
	<path fill="#842F3C" d="M19.884,9.181c-2.44,1.651-4.293,2.935-5.558,3.85c-0.424,0.313-0.768,0.557-1.033,0.731
		c-0.264,0.175-0.615,0.354-1.054,0.536c-0.44,0.183-0.848,0.274-1.228,0.274h-0.022c-0.38,0-0.789-0.091-1.228-0.274
		c-0.439-0.182-0.791-0.36-1.055-0.536c-0.264-0.174-0.608-0.418-1.032-0.731c-1.005-0.736-2.854-2.02-5.547-3.85
		C1.703,8.898,1.327,8.574,1,8.21v8.861c0,0.492,0.175,0.912,0.524,1.261c0.35,0.35,0.771,0.524,1.262,0.524h16.428
		c0.491,0,0.912-0.174,1.261-0.524c0.35-0.35,0.524-0.77,0.524-1.261V8.21C20.68,8.567,20.308,8.891,19.884,9.181L19.884,9.181z
		 M19.884,9.181"/>
</g>
</svg>
