<?xml version="1.0" encoding="utf-8"?>
<!-- Generator: Adobe Illustrator 17.0.0, SVG Export Plug-In . SVG Version: 6.00 Build 0)  -->
<!DOCTYPE svg PUBLIC "-//W3C//DTD SVG 1.1//EN" "http://www.w3.org/Graphics/SVG/1.1/DTD/svg11.dtd">
<svg version="1.1" id="Layer_1" xmlns="http://www.w3.org/2000/svg" xmlns:xlink="http://www.w3.org/1999/xlink" x="0px" y="0px"
	 width="22px" height="22px" viewBox="0 0 22 22" enable-background="new 0 0 22 22" xml:space="preserve">
<path fill="#842F3C" d="M19.249,6.003c-0.007-0.09-0.082-0.159-0.171-0.159h-3.094V4.984C15.984,2.236,13.748,0,11,0
	S6.016,2.236,6.016,4.984v0.859H2.922c-0.09,0-0.165,0.069-0.171,0.159L1.547,21.815c-0.004,0.048,0.013,0.095,0.045,0.13
	C1.625,21.98,1.671,22,1.719,22h18.563c0.048,0,0.094-0.02,0.126-0.055c0.032-0.035,0.049-0.082,0.045-0.13L19.249,6.003z M11,1.375
	c1.99,0,3.609,1.619,3.609,3.609v0.859H7.391V4.984C7.391,2.994,9.01,1.375,11,1.375z M6.703,10.656
	c-0.948,0-1.719-0.771-1.719-1.719c0-0.686,0.344-1.304,1.031-1.575v1.575c0,0.379,0.309,0.688,0.688,0.688
	c0.379,0,0.688-0.308,0.688-0.688V7.363c0.688,0.271,1.031,0.894,1.031,1.574C8.422,9.885,7.651,10.656,6.703,10.656z
	 M15.297,10.656c-0.948,0-1.719-0.771-1.719-1.719c0-0.686,0.344-1.304,1.031-1.575v1.575c0,0.379,0.309,0.688,0.688,0.688
	s0.688-0.308,0.688-0.688V7.363c0.688,0.271,1.031,0.894,1.031,1.574C17.016,9.885,16.245,10.656,15.297,10.656z"/>
</svg>
