<?xml version="1.0" encoding="utf-8"?>
<!-- Generator: Adobe Illustrator 17.0.0, SVG Export Plug-In . SVG Version: 6.00 Build 0)  -->
<!DOCTYPE svg PUBLIC "-//W3C//DTD SVG 1.1//EN" "http://www.w3.org/Graphics/SVG/1.1/DTD/svg11.dtd">
<svg version="1.1" id="Layer_1" xmlns="http://www.w3.org/2000/svg" xmlns:xlink="http://www.w3.org/1999/xlink" x="0px" y="0px"
	 width="22px" height="22px" viewBox="0 0 22 22" enable-background="new 0 0 22 22" xml:space="preserve">
<g>
	<g>
		<path fill="#842F3C" d="M10.999,0C6.534,0,2.9,3.633,2.9,8.099c0,1.165,0.239,2.278,0.708,3.307
			c2.025,4.43,5.908,9.109,7.05,10.437c0.085,0.1,0.21,0.157,0.341,0.157c0.132,0,0.256-0.057,0.342-0.157
			c1.141-1.328,5.024-6.006,7.049-10.437c0.471-1.029,0.709-2.141,0.709-3.307C19.098,3.633,15.465,0,10.999,0L10.999,0z
			 M10.999,12.306c-2.32,0-4.207-1.888-4.207-4.207c0-2.32,1.888-4.207,4.207-4.207c2.32,0,4.207,1.888,4.207,4.207
			C15.207,10.418,13.319,12.306,10.999,12.306L10.999,12.306z M10.999,12.306"/>
	</g>
</g>
</svg>
