<?xml version="1.0" encoding="utf-8"?>
<!-- Generator: Adobe Illustrator 17.0.0, SVG Export Plug-In . SVG Version: 6.00 Build 0)  -->
<!DOCTYPE svg PUBLIC "-//W3C//DTD SVG 1.1//EN" "http://www.w3.org/Graphics/SVG/1.1/DTD/svg11.dtd">
<svg version="1.1" id="Layer_1" xmlns="http://www.w3.org/2000/svg" xmlns:xlink="http://www.w3.org/1999/xlink" x="0px" y="0px"
	 width="192px" height="40px" viewBox="0 0 192 40" enable-background="new 0 0 192 40" xml:space="preserve">
<g>
	<path fill="#84303D" d="M33.733,29.851c-0.224,0.596-0.523,1.045-0.97,1.417c-0.449,0.374-1.194,0.673-2.239,0.895v1.344h11.343
		l0.15-1.344c-1.269-0.15-2.09-0.447-2.613-0.895c-0.596-0.372-0.895-0.97-1.045-1.865c-0.075-0.299-0.075-0.82-0.075-1.344v-0.372
		V11.419c0-1.194,0.075-2.015,0.224-2.613c0.15-0.596,0.449-1.12,0.97-1.417c0.449-0.374,1.269-0.673,2.239-0.895l-0.075-1.419H30.3
		l-0.075,1.419c1.269,0.222,2.164,0.521,2.613,0.895c0.521,0.372,0.895,0.97,1.045,1.791c0,0.374,0.075,0.97,0.075,1.791v16.343
		C33.957,28.433,33.883,29.253,33.733,29.851z"/>
	<path fill="#84303D" d="M134.611,7.408c0.344-0.228,1.017-0.553,2.275-0.806l0.101-0.019l-0.172-1.62h-9.622l0.086,1.63
		l0.092,0.013c1.271,0.168,2.037,0.413,2.488,0.8c1.073,0.764,1.073,2.761,1.073,3.417c0,3.755-0.022,7.575-0.045,11.27
		c-0.009,1.703-0.021,3.405-0.028,5.108L117.931,5.019l-0.034-0.056h-8.826l-0.086,1.624l0.097,0.017
		c2.856,0.505,3.637,1.443,3.637,4.368v16.416c0.002,1.458,0.002,2.833-1.151,3.794c-0.434,0.361-1.17,0.654-2.191,0.873
		l-0.09,0.019v1.546h9.627v-1.553l-0.097-0.013c-1.093-0.146-1.901-0.437-2.404-0.869c-1.035-0.888-1.155-2.42-1.155-3.497
		L115.04,8.701l14.711,24.862l0.034,0.056h3.684v-22.2l-0.002-0.239C133.463,9.865,133.459,8.232,134.611,7.408z"/>
	<path fill="#84303D" d="M158.879,31.108c-0.428,0.357-1.151,0.649-2.342,0.948l-0.086,0.021v1.544h11.263l0.084-1.533l-0.078-0.028
		c-1.004-0.359-1.764-0.658-2.217-0.961c-0.361-0.217-0.718-0.574-0.929-0.925c-0.211-0.421-0.492-1.047-0.966-2.155l-8.805-22.983
		l-0.028-0.071h-4.258l-8.984,23.133c-0.404,1.131-0.854,1.877-1.46,2.417c-0.693,0.615-1.514,1.121-2.508,1.548l-0.067,0.028v1.531
		h10.672v-1.548l-0.092-0.017c-1.099-0.221-1.912-0.516-2.424-0.882c-0.518-0.323-0.834-0.776-0.992-1.396v-0.449
		c0-0.361,0.075-0.882,0.217-1.531l1.764-4.923h10.364l1.914,5.448c0.187,0.495,0.267,0.834,0.335,1.106l0.032,0.123
		c0,0.084,0.021,0.185,0.041,0.282c0.017,0.086,0.034,0.176,0.034,0.239C159.362,30.582,159.214,30.906,158.879,31.108z
		 M156.179,20.858h-8.708l4.317-11.801L156.179,20.858z"/>
	<path fill="#84303D" d="M6.256,31.278c2.729,1.463,6.011,2.938,9.715,2.938c6.525,0,10.575-3.237,12.061-6.011
		c1.148-2.146,1.368-4.873,0.576-7.115c-1.228-3.473-4.79-5.256-7.566-6.14c-1.443-0.46-2.94-0.822-4.39-1.174
		c-2.275-0.551-4.626-1.123-6.775-2.075c-1.363-0.604-2.301-1.443-2.871-2.562C6.37,7.893,6.49,6.446,7.325,5.267
		c0.999-1.406,2.824-2.4,4.907-2.681c0.357-0.04,0.714-0.066,1.072-0.066C70.852,2.527,128.401,2.533,185.95,2.538V0H12.822
		L12.31,0.007c-1.798,0.003-4.087,0.139-6.024,1.121c-2.88,1.46-4.531,3.987-4.531,6.932c0,4.706,3.129,7.818,9.562,9.511
		l5.82,1.491c2.252,0.6,5.34,1.424,6.577,3.736c1.28,2.387,0.615,5.149-1.686,7.031c-1.764,1.176-3.802,1.772-6.058,1.772
		c-3.609,0-7.315-1.714-9.915-4.588c-1.374-1.52-2.564-3.415-3.639-5.792l-0.036-0.078l-2.073,0.333l3.316,12.059l0.024,0.084h1.729
		L6.256,31.278z"/>
	<path fill="#84303D" d="M177.447,18.559c-0.392-0.079-0.777-0.155-1.146-0.23c-4.62-0.948-7.164-2.547-7.777-4.888
		c-0.484-1.854,0.505-3.82,2.516-5.011c1.155-0.682,2.604-1.045,4.192-1.047h0.007c2.787,0,8.057,1.075,12.121,8.269l0.039,0.069
		l1.998-0.333l-3.25-9.751l-0.026-0.078h-1.727l-0.654,1.822c-3.456-1.738-8.734-3.144-13.321-1.938
		c-2.362,0.621-5.267,2.291-6.336,5.127c-1.101,2.919-0.236,6.575,2.103,8.891c2.665,2.639,6.912,3.594,10.657,4.439
		c1.202,0.271,2.34,0.525,3.383,0.824c1.118,0.32,2.74,0.906,4.117,1.877c1.047,0.738,1.8,1.553,2.239,2.424
		c1.299,2.576-0.342,5.332-2.632,6.725c-0.686,0.415-1.467,0.768-2.327,1.049c-1.258,0.409-2.592,0.626-4.075,0.658
		c-0.077,0.002-0.15,0.004-0.225,0.005H4.256v2.536h174.548c0.062,0.001,0.125,0.002,0.185,0.002h0.035
		c0.123-0.004,0.245-0.011,0.366-0.017l0.146-0.009c0.443-0.026,0.938-0.077,1.555-0.159c4.598-0.6,8.099-2.716,9.605-5.8
		c0.628-1.288,0.963-2.762,0.992-4.387C191.835,21.414,183.52,19.762,177.447,18.559z"/>
	<path fill="#84303D" d="M47.43,29.824c-0.14,0.553-0.411,0.985-0.852,1.353c-0.525,0.376-1.267,0.662-2.273,0.877l-0.093,0.021
		l0.086,1.544h13.388c1.496,0,3.011-0.138,4.483-0.433c2.877-0.459,5.653-1.496,7.683-3.633c0.202-0.222,0.395-0.45,0.583-0.683
		c1.996-2.168,3.26-5.163,3.26-9.168c0-4.459-1.71-8.411-4.816-11.13c-1.865-1.568-3.811-2.551-5.947-3.009
		c-2.303-0.398-4.97-0.6-7.93-0.6H44.079l-0.172,1.622l0.105,0.019c1.245,0.221,2.133,0.514,2.641,0.877
		c0.479,0.342,0.772,0.89,0.925,1.721c0.067,0.335,0.146,0.912,0.146,1.77v16.343C47.724,28.209,47.629,29.032,47.43,29.824z
		 M68.322,22.518c-0.733,4.181-3.018,6.94-6.79,8.196c-2.198,0.733-4.117,1.056-5.701,0.979c-0.834-0.045-1.449-0.155-1.989-0.359
		c-0.834-0.314-1.348-0.953-1.568-1.948c-0.073-0.514-0.073-1.037-0.073-1.699c0-2.923,0.019-5.895,0.037-8.769
		c0.019-2.873,0.037-5.846,0.037-8.769c0-0.656,0-1.174,0.144-1.611c0.159-0.553,0.464-0.931,0.907-1.12
		c0.949-0.396,1.985-0.589,3.166-0.589c1.807,0,6.31,0.331,9.093,3.392c0.8,0.959,1.364,1.85,1.776,2.811
		C68.61,15.739,68.971,19.285,68.322,22.518z"/>
	<path fill="#84303D" d="M77.119,21.884c0.004,0.025,0.007,0.051,0.01,0.076c0.012,0.072,0.029,0.142,0.042,0.213
		c0.015,0.077,0.03,0.153,0.046,0.23c0.053,0.261,0.112,0.519,0.178,0.775c0.002,0.008,0.004,0.015,0.006,0.023
		c0.083,0.317,0.173,0.631,0.277,0.941c0.012,0.037,0.023,0.074,0.035,0.111c0.006,0.018,0.013,0.036,0.019,0.053
		c0.793,2.358,2.055,4.355,3.7,5.926c2.617,2.561,6.256,3.985,10.358,3.985c0.074,0,0.145-0.005,0.219-0.006
		c0.195-0.003,0.39-0.006,0.583-0.016c0.195-0.009,0.388-0.023,0.58-0.038c0.039-0.003,0.079-0.006,0.118-0.01
		c2.046-0.174,3.915-0.702,5.567-1.587c2.164-1.118,3.886-2.669,5.267-4.74c1.001-1.591,1.681-3.366,2.037-5.294
		c0.021-0.11,0.039-0.221,0.058-0.332c0.022-0.133,0.045-0.266,0.063-0.401c0.038-0.271,0.072-0.544,0.097-0.821
		c0.011-0.38,0.009-0.756,0-1.131v-0.066c0-1.05-0.077-2.035-0.226-2.929c-0.241-1.449-0.672-2.8-1.317-4.142
		c-0.519-1.161-1.162-2.234-1.924-3.194c-2.518-3.168-6.129-4.947-10.448-5.147c-0.202-0.006-0.4-0.007-0.598-0.007
		c-6.373,0-9.992,2.918-11.917,5.409c-0.299,0.386-0.575,0.79-0.831,1.208c-0.284,0.435-0.548,0.888-0.785,1.363
		c-0.806,1.611-1.273,3.383-1.43,5.415v0.009c0,0.185,0,0.367,0.001,0.547C76.845,19.496,76.915,20.697,77.119,21.884z
		 M101.305,19.551c0,6.11-3.671,12.425-9.814,12.425c-8.824,0-9.513-10.528-9.513-13.764c0.613-7.966,5.671-11.532,10.399-11.534
		C96.692,7.055,101.305,10.632,101.305,19.551z"/>
</g>
</svg>
