<?xml version="1.0" encoding="utf-8"?>
<!-- Generator: Adobe Illustrator 17.0.0, SVG Export Plug-In . SVG Version: 6.00 Build 0)  -->
<!DOCTYPE svg PUBLIC "-//W3C//DTD SVG 1.1//EN" "http://www.w3.org/Graphics/SVG/1.1/DTD/svg11.dtd">
<svg version="1.1" id="Layer_1" xmlns="http://www.w3.org/2000/svg" xmlns:xlink="http://www.w3.org/1999/xlink" x="0px" y="0px"
	 width="22px" height="22px" viewBox="0 0 22 22" enable-background="new 0 0 22 22" xml:space="preserve">
<path fill="#842F3C" d="M19.426,21.097c-1.024-2.127-2.867-3.798-5.102-4.641v-1.345c1.098-0.06,3.17-0.34,4.385-1.583
	c0.154-0.158,0.214-0.386,0.158-0.601c-0.056-0.214-0.223-0.382-0.438-0.442c-0.018-0.005-1.62-0.554-1.299-3.831
	c0.14-1.397,0.116-2.653-0.065-3.733c-0.21-1.238-0.628-2.211-1.238-2.891c-0.661-0.731-1.522-1.103-2.56-1.103h-0.121
	C12.75,0.582,11.885,0,10.558,0C9.939,0,9.292,0.126,8.631,0.382L8.603,0.391C8.081,0.586,7.113,0.954,6.294,2.044
	C5.339,3.31,4.883,5.186,4.939,7.616c0.056,2.435-0.344,3.626-0.689,4.199c-0.284,0.47-0.554,0.563-0.624,0.582
	c-0.237-0.019-0.428,0.103-0.549,0.307c-0.126,0.21-0.079,0.475,0.061,0.68c0.056,0.084,0.382,0.521,1.168,0.945
	c0.899,0.484,2.02,0.759,3.347,0.815v1.28c-2.206,0.838-4.041,2.523-5.079,4.679c-0.093,0.195-0.079,0.424,0.032,0.605
	C2.723,21.888,2.923,22,3.138,22h15.725c0.214,0,0.419-0.112,0.531-0.293C19.505,21.521,19.519,21.293,19.426,21.097L19.426,21.097z
	 M4.208,20.738"/>
</svg>
