<?xml version="1.0" encoding="utf-8"?>
<!-- Generator: Adobe Illustrator 17.0.0, SVG Export Plug-In . SVG Version: 6.00 Build 0)  -->
<!DOCTYPE svg PUBLIC "-//W3C//DTD SVG 1.1//EN" "http://www.w3.org/Graphics/SVG/1.1/DTD/svg11.dtd">
<svg version="1.1" id="Layer_1" xmlns="http://www.w3.org/2000/svg" xmlns:xlink="http://www.w3.org/1999/xlink" x="0px" y="0px"
	 width="22px" height="22px" viewBox="0 0 22 22" enable-background="new 0 0 22 22" xml:space="preserve">
<g>
	<g>
		<path fill="#842F3C" d="M10.934,4.455c0.889-2.103,2.918-3.575,5.277-3.575c3.177,0,5.465,2.72,5.753,5.96
			c0,0,0.157,0.804-0.185,2.252c-0.466,1.972-1.56,3.725-3.036,5.062l-7.809,6.967l-7.676-6.967
			c-1.476-1.336-2.57-3.089-3.036-5.062C-0.12,7.643,0.035,6.84,0.035,6.84c0.288-3.242,2.578-5.96,5.756-5.96
			C8.149,0.88,10.047,2.352,10.934,4.455L10.934,4.455z M10.934,4.455"/>
	</g>
</g>
</svg>
